<?xml version="1.0" standalone="no"?><!DOCTYPE svg PUBLIC "-//W3C//DTD SVG 1.1//EN" "http://www.w3.org/Graphics/SVG/1.1/DTD/svg11.dtd"><svg t="1786071990409" class="icon" viewBox="0 0 1024 1024" version="1.1" xmlns="http://www.w3.org/2000/svg" p-id="21141" xmlns:xlink="http://www.w3.org/1999/xlink" width="200" height="200"><path d="M877.696 0A146.304 146.304 0 0 1 1024 146.304v731.392A146.304 146.304 0 0 1 877.696 1024H146.304A146.304 146.304 0 0 1 0 877.696V146.304A146.304 146.304 0 0 1 146.304 0z m0.096 73.088H146.464a73.408 73.408 0 0 0-73.376 73.28v731.52c0 19.552 7.68 37.856 21.536 51.68 13.824 13.824 32.32 21.344 51.84 21.344h731.328a72.96 72.96 0 0 0 73.12-73.024V146.368a73.184 73.184 0 0 0-73.12-73.28zM308.192 537.28c71.616 0 129.696 58.816 129.696 131.328 0 72.544-58.08 131.36-129.696 131.36s-129.696-58.816-129.696-131.36c0-72.512 58.08-131.328 129.696-131.328z m10.88 76.064a55.488 55.488 0 0 0-62.24 33.696 56.768 56.768 0 0 0 20.48 68.416c22.048 14.944 51.456 12.032 70.24-6.976 10.464-10.56 16.32-24.896 16.32-39.84 0-26.88-18.752-50.048-44.8-55.296z m507.904 17.728c20.448 0 37.024 16.8 37.024 37.504 0 20.704-16.576 37.504-37.024 37.504H530.56a37.248 37.248 0 0 1-37.024-37.504c0-20.704 16.576-37.504 37.024-37.504zM393.184 266.816a36.704 36.704 0 0 1 52.16 0.16c14.4 14.592 14.496 38.208 0.192 52.864l-148.224 150.144a36.8 36.8 0 0 1-52.352 0L170.848 394.88a37.824 37.824 0 0 1-9.6-36.224c3.424-12.928 13.44-23.04 26.208-26.528 12.768-3.456 26.4 0.256 35.744 9.728L271.136 390.4z m433.792 63.872c20.448 0 37.024 16.8 37.024 37.504 0 20.704-16.576 37.504-37.024 37.504H530.56a37.248 37.248 0 0 1-37.024-37.504c0-20.704 16.576-37.504 37.024-37.504z" p-id="21142"></path></svg>